PathFileType	4	(X/Y/Z)	\\Move.snu.ac.kr\motion\Animal\091204_091205_Bird\091205_bird\Project 2\Capture day 2\Session 1\pigeon_024.trc
DataRate	CameraRate	NumFrames	NumMarkers	Units	OrigDataRate	OrigDataStartFrame	OrigNumFrames
240.0	240.0	8	14	mm	240.0	100	1929
Frame#	Time	14MarkersBird:Head			14MarkersBird:C_back			14MarkersBird:Spine			14MarkersBird:L-shoulder			14MarkersBird:L-elbow			14MarkersBird:L-wrist			14MarkersBird:L-hand			14MarkersBird:R-shoulder			14MarkersBird:R-elbow			14MarkersBird:R-Wrist			14MarkersBird:R-hand			14MarkersBird:C_Tail			14MarkersBird:L-Tale			14MarkersBird:R-Tale			
		X1	Y1	Z1	X2	Y2	Z2	X3	Y3	Z3	X4	Y4	Z4	X5	Y5	Z5	X6	Y6	Z6	X7	Y7	Z7	X8	Y8	Z8	X9	Y9	Z9	X10	Y10	Z10	X11	Y11	Z11	X12	Y12	Z12	X13	Y13	Z13	X14	Y14	Z14	

986	4.104	437.35114	1495.52979	-2029.87207	443.63367	1487.42358	-2089.23096	451.88281	1475.45471	-2142.07227	466.38193	1483.25598	-2058.56299	466.54080	1499.86279	-2098.37158	498.57568	1521.72131	-2076.58545	519.32684	1517.43286	-2095.50220	428.33063	1494.62097	-2063.33203	444.59961	1509.49072	-2096.96533	423.00262	1540.19873	-2075.72217	393.43185	1548.79138	-2095.92749	437.81790	1385.43384	-2231.15918	519.66235	1390.51819	-2161.00049	350.92773	1467.50793	-2192.20703	
987	4.108	437.70401	1495.22778	-2024.54565	442.39981	1485.66077	-2084.48047	450.84799	1474.12793	-2136.79199	466.42548	1482.33899	-2053.65405	464.10617	1500.83740	-2090.31372	495.34940	1526.41492	-2074.10889	512.63977	1530.18726	-2096.37891	429.02203	1493.83435	-2057.87817	447.76312	1508.77686	-2089.99170	429.52103	1543.28381	-2070.74902	407.67273	1559.68958	-2097.12817	435.53119	1383.27820	-2224.97949	519.92023	1390.74829	-2154.50244	349.28516	1468.07544	-2185.88574	
988	4.113	438.12344	1494.92773	-2019.21960	442.10590	1484.15344	-2079.70679	449.89963	1472.51733	-2131.59766	466.71344	1481.24646	-2048.85889	463.25360	1501.03491	-2080.64111	493.13107	1529.73767	-2070.32275	504.91263	1540.50928	-2094.12622	429.36935	1492.99792	-2052.62134	449.73230	1508.94556	-2082.63818	434.43414	1545.67505	-2065.08740	421.95953	1568.26233	-2094.72974	433.82324	1381.32300	-2219.26709	519.69397	1390.46570	-2148.87964	348.09125	1468.28149	-2180.34351	
989	4.117	438.62411	1494.61304	-2013.89246	442.59314	1482.86829	-2074.89063	448.98471	1470.85461	-2126.45020	467.24246	1480.08215	-2044.14990	463.27222	1500.80688	-2070.54858	492.84756	1531.34973	-2065.46338	498.70331	1547.62537	-2088.98975	429.37088	1492.22754	-2047.52271	450.37381	1509.67969	-2074.76025	436.50439	1547.39697	-2059.07520	432.99158	1574.82605	-2088.91382	432.59607	1379.58899	-2214.00000	519.12524	1389.90271	-2144.16724	347.17276	1467.99243	-2175.32397	
990	4.121	439.20282	1494.28625	-2008.61072	443.69952	1481.77087	-2070.01245	448.07776	1469.25220	-2121.37036	467.99655	1478.89844	-2039.53015	464.14230	1500.19653	-2061.43335	495.10596	1530.90967	-2060.04248	496.69553	1551.27441	-2081.68188	429.05029	1491.51794	-2042.50391	449.53360	1510.55029	-2067.01172	434.91025	1548.35254	-2053.13843	437.87198	1579.90649	-2080.57837	431.68958	1378.17371	-2209.09888	518.37500	1389.32947	-2140.14014	346.30884	1467.14563	-2170.45068	
991	4.125	439.86282	1493.94238	-2003.42944	445.26291	1480.82715	-2065.05249	447.20633	1467.75854	-2116.34497	468.90314	1477.67188	-2034.98352	466.43048	1499.03101	-2054.69824	499.83096	1528.04431	-2054.61523	500.60876	1551.30920	-2073.29443	428.53455	1490.78711	-2037.43005	447.35413	1511.09290	-2059.90552	429.73172	1548.27124	-2047.52002	435.18375	1583.48523	-2071.02563	430.91458	1377.21497	-2204.43921	517.57288	1388.94824	-2136.39160	345.33200	1465.89502	-2165.38623	
992	4.129	440.63284	1493.58582	-1998.36169	447.12131	1480.00293	-2059.99121	446.41180	1466.43457	-2111.33545	469.81265	1476.32629	-2030.45837	470.70108	1496.94275	-2050.69287	506.32254	1522.46265	-2049.46338	510.27295	1547.27771	-2064.89136	428.04019	1489.93579	-2032.10168	444.20239	1510.97290	-2053.33423	421.86475	1546.76221	-2042.00854	425.45688	1584.75452	-2061.21533	430.04886	1376.78247	-2199.86670	516.77771	1388.78894	-2132.49561	344.17618	1464.59839	-2159.92920	
993	4.133	441.53867	1493.25134	-1993.37720	449.11252	1479.26367	-2054.80933	445.73615	1465.34167	-2106.30103	470.59415	1474.79822	-2025.88635	476.49371	1493.67151	-2048.11646	513.64227	1514.22217	-2044.39771	523.56030	1538.64014	-2056.88794	427.71457	1488.89294	-2026.34119	440.29599	1510.57959	-2047.24988	412.52643	1543.46924	-2035.96265	410.75955	1582.66431	-2051.11768	428.88428	1376.82153	-2195.22266	515.93384	1388.65417	-2128.15942	342.86011	1463.61499	-2154.01489	
